# Blender 5.0.1
# www.blender.org
mtllib spiral.mtl
o Plane
v 1.000000 0.000000 0.000000
v 0.976188 0.031250 0.194176
v 0.915218 0.062500 0.379096
v 0.819777 0.093750 0.547758
v 0.693848 0.125000 0.693848
v 0.542549 0.156250 0.811982
v 0.371920 0.187500 0.897895
v 0.188689 0.218750 0.948603
v -0.000000 0.250000 0.962500
v -0.186860 0.281250 0.939408
v -0.364745 0.312500 0.880573
v -0.526924 0.343750 0.788597
v -0.667332 0.375000 0.667332
v -0.780802 0.406250 0.521715
v -0.863250 0.437500 0.357570
v -0.911824 0.468750 0.181373
v -0.925000 0.500000 -0.000000
v -0.902629 0.531250 -0.179544
v -0.845927 0.562500 -0.350395
v -0.757417 0.593750 -0.506090
v -0.640815 0.625000 -0.640816
v -0.500881 0.656250 -0.749622
v -0.343219 0.687500 -0.828605
v -0.174057 0.718750 -0.875044
v 0.000000 0.750000 -0.887500
v 0.172228 0.781250 -0.865849
v 0.336044 0.812500 -0.811282
v 0.485256 0.843750 -0.726237
v 0.614299 0.875000 -0.614299
v 0.718442 0.906250 -0.480047
v 0.793959 0.937500 -0.328869
v 0.838265 0.968750 -0.166741
v 0.850000 1.000000 0.000000
v 0.829070 1.031250 0.164912
v 0.776636 1.062500 0.321694
v 0.695056 1.093750 0.464422
v 0.587783 1.125000 0.587783
v 0.459213 1.156250 0.687262
v 0.314518 1.187500 0.759314
v 0.159425 1.218750 0.801485
v -0.000000 1.250000 0.812500
v -0.157596 1.281250 0.792291
v -0.307343 1.312500 0.741991
v -0.443588 1.343750 0.663876
v -0.561266 1.375000 0.561266
v -0.656082 1.406250 0.438379
v -0.724668 1.437500 0.300167
v -0.764706 1.468750 0.152109
v -0.775000 1.500000 -0.000000
v -0.755511 1.531250 -0.150281
v -0.707345 1.562500 -0.292992
v -0.632696 1.593750 -0.422755
v -0.534749 1.625000 -0.534750
v -0.417546 1.656250 -0.624901
v -0.285816 1.687500 -0.690023
v -0.144794 1.718750 -0.727927
v 0.000000 1.750000 -0.737500
v 0.142965 1.781250 -0.718732
v 0.278641 1.812500 -0.672700
v 0.401921 1.843750 -0.601516
v 0.508233 1.875000 -0.508233
v 0.593721 1.906250 -0.396711
v 0.655377 1.937500 -0.271466
v 0.691147 1.968750 -0.137477
v 0.700000 2.000000 0.000000
v 1.000000 0.521011 0.000000
v 0.976188 0.552261 0.194176
v 0.915218 0.583511 0.379096
v 0.819777 0.614761 0.547758
v 0.693848 0.646011 0.693848
v 0.542549 0.677261 0.811982
v 0.371920 0.708511 0.897895
v 0.188689 0.739761 0.948603
v -0.000000 0.771011 0.962500
v -0.186860 0.802261 0.939408
v -0.364745 0.833511 0.880573
v -0.526924 0.864761 0.788597
v -0.667332 0.896011 0.667332
v -0.780802 0.927261 0.521715
v -0.863250 0.958511 0.357570
v -0.911824 0.989761 0.181373
v -0.925000 1.021011 -0.000000
v -0.902629 1.052261 -0.179544
v -0.845927 1.083511 -0.350395
v -0.757417 1.114761 -0.506090
v -0.640815 1.146011 -0.640816
v -0.500881 1.177261 -0.749622
v -0.343219 1.208511 -0.828605
v -0.174057 1.239761 -0.875044
v 0.000000 1.271011 -0.887500
v 0.172228 1.302261 -0.865849
v 0.336044 1.333511 -0.811282
v 0.485256 1.364761 -0.726237
v 0.614299 1.396011 -0.614299
v 0.718442 1.427261 -0.480047
v 0.793959 1.458511 -0.328869
v 0.838265 1.489761 -0.166741
v 0.850000 1.521011 0.000000
v 0.829070 1.552261 0.164912
v 0.776636 1.583511 0.321694
v 0.695056 1.614761 0.464422
v 0.587783 1.646011 0.587783
v 0.459213 1.677261 0.687262
v 0.314518 1.708511 0.759314
v 0.159425 1.739761 0.801485
v -0.000000 1.771011 0.812500
v -0.157596 1.802261 0.792291
v -0.307343 1.833511 0.741991
v -0.443588 1.864761 0.663876
v -0.561266 1.896011 0.561266
v -0.656082 1.927261 0.438379
v -0.724668 1.958511 0.300167
v -0.764706 1.989761 0.152109
v -0.775000 2.021011 -0.000000
v -0.755511 2.052261 -0.150281
v -0.707345 2.083511 -0.292992
v -0.632696 2.114761 -0.422755
v -0.534749 2.146011 -0.534750
v -0.417546 2.177261 -0.624901
v -0.285816 2.208511 -0.690023
v -0.144794 2.239761 -0.727927
v 0.000000 2.271011 -0.737500
v 0.142965 2.302261 -0.718732
v 0.278641 2.333511 -0.672700
v 0.401921 2.364761 -0.601516
v 0.508233 2.396011 -0.508233
v 0.593721 2.427261 -0.396711
v 0.655377 2.458511 -0.271466
v 0.691147 2.489761 -0.137477
v 0.700000 2.521011 0.000000
vn 0.9917 -0.0000 0.1286
vn 0.2647 -0.0000 0.9643
vn 0.9475 -0.0000 0.3198
vn 0.0714 -0.0000 0.9974
vn 0.8668 -0.0000 0.4986
vn -0.1247 -0.0000 0.9922
vn 0.7527 -0.0000 0.6583
vn -0.3160 -0.0000 0.9487
vn 0.6097 -0.0000 0.7926
vn -0.4952 -0.0000 0.8688
vn -0.9926 -0.0000 -0.1217
vn 0.4432 -0.0000 0.8964
vn -0.6553 -0.0000 0.7554
vn -0.9497 -0.0000 -0.3131
vn 0.2596 -0.0000 0.9657
vn -0.7901 -0.0000 0.6129
vn -0.8703 -0.0000 -0.4925
vn 0.0660 -0.0000 0.9978
vn -0.8946 -0.0000 0.4469
vn -0.7574 -0.0000 -0.6529
vn -0.1302 -0.0000 0.9915
vn -0.9646 -0.0000 0.2636
vn -0.6154 -0.0000 -0.7882
vn -0.3213 -0.0000 0.9470
vn -0.9975 -0.0000 0.0702
vn -0.4497 -0.0000 -0.8932
vn -0.5000 -0.0000 0.8660
vn -0.9920 -0.0000 -0.1259
vn -0.2667 -0.0000 -0.9638
vn -0.6595 -0.0000 0.7517
vn -0.9484 -0.0000 -0.3172
vn -0.0734 -0.0000 -0.9973
vn -0.7936 -0.0000 0.6084
vn -0.8682 -0.0000 -0.4962
vn 0.1226 -0.0000 -0.9925
vn -0.8972 -0.0000 0.4417
vn -0.7546 -0.0000 -0.6562
vn 0.3140 -0.0000 -0.9494
vn -0.9662 -0.0000 0.2579
vn -0.6119 -0.0000 -0.7909
vn 0.4933 -0.0000 -0.8699
vn -0.9979 -0.0000 0.0643
vn -0.4457 -0.0000 -0.8952
vn 0.6536 -0.0000 -0.7568
vn -0.2624 -0.0000 -0.9650
vn 0.7888 -0.0000 -0.6147
vn -0.0689 -0.0000 -0.9976
vn 0.8936 -0.0000 -0.4488
vn 0.1272 -0.0000 -0.9919
vn 0.9640 -0.0000 -0.2658
vn 0.3184 -0.0000 -0.9480
vn 0.9974 -0.0000 -0.0725
vn 0.4974 -0.0000 -0.8675
vn 0.9923 -0.0000 0.1236
vn 0.6572 -0.0000 -0.7537
vn 0.9491 -0.0000 0.3150
vn 0.7917 -0.0000 -0.6109
vn 0.8693 -0.0000 0.4942
vn 0.8958 -0.0000 -0.4445
vn 0.7561 -0.0000 0.6544
vn 0.9653 -0.0000 -0.2610
vn 0.6138 -0.0000 0.7894
vn 0.9977 -0.0000 -0.0675
vn 0.4479 -0.0000 0.8941
s 0
f 49//1 50//1 115//1 114//1
f 23//2 24//2 89//2 88//2
f 50//3 51//3 116//3 115//3
f 24//4 25//4 90//4 89//4
f 51//5 52//5 117//5 116//5
f 25//6 26//6 91//6 90//6
f 52//7 53//7 118//7 117//7
f 26//8 27//8 92//8 91//8
f 53//9 54//9 119//9 118//9
f 27//10 28//10 93//10 92//10
f 1//11 2//11 67//11 66//11
f 54//12 55//12 120//12 119//12
f 28//13 29//13 94//13 93//13
f 2//14 3//14 68//14 67//14
f 55//15 56//15 121//15 120//15
f 29//16 30//16 95//16 94//16
f 3//17 4//17 69//17 68//17
f 56//18 57//18 122//18 121//18
f 30//19 31//19 96//19 95//19
f 4//20 5//20 70//20 69//20
f 57//21 58//21 123//21 122//21
f 31//22 32//22 97//22 96//22
f 5//23 6//23 71//23 70//23
f 58//24 59//24 124//24 123//24
f 32//25 33//25 98//25 97//25
f 6//26 7//26 72//26 71//26
f 59//27 60//27 125//27 124//27
f 33//28 34//28 99//28 98//28
f 7//29 8//29 73//29 72//29
f 60//30 61//30 126//30 125//30
f 34//31 35//31 100//31 99//31
f 8//32 9//32 74//32 73//32
f 61//33 62//33 127//33 126//33
f 35//34 36//34 101//34 100//34
f 9//35 10//35 75//35 74//35
f 62//36 63//36 128//36 127//36
f 36//37 37//37 102//37 101//37
f 10//38 11//38 76//38 75//38
f 63//39 64//39 129//39 128//39
f 37//40 38//40 103//40 102//40
f 11//41 12//41 77//41 76//41
f 64//42 65//42 130//42 129//42
f 38//43 39//43 104//43 103//43
f 12//44 13//44 78//44 77//44
f 39//45 40//45 105//45 104//45
f 13//46 14//46 79//46 78//46
f 40//47 41//47 106//47 105//47
f 14//48 15//48 80//48 79//48
f 41//49 42//49 107//49 106//49
f 15//50 16//50 81//50 80//50
f 42//51 43//51 108//51 107//51
f 16//52 17//52 82//52 81//52
f 43//53 44//53 109//53 108//53
f 17//54 18//54 83//54 82//54
f 44//55 45//55 110//55 109//55
f 18//56 19//56 84//56 83//56
f 45//57 46//57 111//57 110//57
f 19//58 20//58 85//58 84//58
f 46//59 47//59 112//59 111//59
f 20//60 21//60 86//60 85//60
f 47//61 48//61 113//61 112//61
f 21//62 22//62 87//62 86//62
f 48//63 49//63 114//63 113//63
f 22//64 23//64 88//64 87//64
